<svg width="49" height="16" viewBox="0 0 49 16" fill="none" xmlns="http://www.w3.org/2000/svg">
<g clip-path="url(#clip0_365_219)">
<path d="M25.3418 5.0941C25.3139 7.31405 27.306 8.5528 28.8067 9.28938C30.3485 10.045 30.8664 10.5297 30.8603 11.2055C30.8488 12.2397 29.6304 12.6962 28.4903 12.714C26.5013 12.745 25.3447 12.173 24.4253 11.7405L23.7087 15.1176C24.6312 15.5458 26.3393 15.9192 28.1106 15.9355C32.2685 15.9355 34.9886 13.8683 35.0034 10.6631C35.0196 6.59521 29.4172 6.37005 29.4555 4.55184C29.4687 4.00051 29.991 3.41217 31.1355 3.26258C31.702 3.18702 33.2658 3.12919 35.0388 3.95155L35.7347 0.684078C34.7812 0.334392 33.5557 -0.000452042 32.03 -0.000452042C28.1166 -0.000452042 25.364 2.09497 25.3418 5.0941ZM42.4213 0.280993C41.6621 0.280993 41.0223 0.727065 40.7367 1.4116L34.7974 15.6955H38.9522L39.779 13.3941H44.8561L45.3357 15.6955H48.9977L45.8021 0.280993H42.4213ZM43.0025 4.44504L44.2016 10.2334H40.9178L43.0025 4.44504ZM20.3044 0.281186L17.0294 15.6954H20.9886L24.262 0.280801H20.3044M14.4474 0.280801L10.3265 10.7728L8.6595 1.85188C8.46391 0.85603 7.69147 0.280993 6.83368 0.280993H0.0972829L0.00292969 0.728607C1.38588 1.03087 2.95716 1.51839 3.90911 2.04003C4.49169 2.35868 4.65782 2.63723 4.8492 3.39444L8.00649 15.6955H12.1904L18.6049 0.280993L14.4474 0.280801Z" fill="url(#paint0_linear_365_219)"/>
</g>
<defs>
<linearGradient id="paint0_linear_365_219" x1="2252.49" y1="47.9032" x2="2298.95" y2="-1588.73" gradientUnits="userSpaceOnUse">
<stop stop-color="#222357"/>
<stop offset="1" stop-color="#254AA5"/>
</linearGradient>
<clipPath id="clip0_365_219">
<rect width="49" height="16" fill="white"/>
</clipPath>
</defs>
</svg>
