<svg width="66" height="17" viewBox="0 0 66 17" fill="none" xmlns="http://www.w3.org/2000/svg">
<g clip-path="url(#clip0_365_232)">
<path d="M13.3948 16.9821C18.0216 17.0045 22.245 13.2193 22.245 8.61454C22.2451 3.57937 18.0216 0.0990641 13.3948 0.100587H9.41305C4.73076 0.0989373 0.876953 3.58013 0.876953 8.61441C0.876953 13.2203 4.73076 17.0044 9.41305 16.982H13.3948" fill="#006095"/>
<path d="M11.1895 13.0988V3.95537C13.0323 4.66037 14.3407 6.43978 14.3438 8.52685C14.3407 10.6142 13.0324 12.3924 11.1894 13.0988M4.52186 8.52685C4.52592 6.44105 5.83223 4.66265 7.67402 3.95563V13.0969C5.83223 12.3905 4.52592 10.6132 4.52198 8.52698M9.43202 0.798828C5.15368 0.800097 1.68669 4.25871 1.68555 8.52685C1.68669 12.7945 5.15368 16.2523 9.43202 16.2536C13.712 16.2523 17.1795 12.7945 17.1801 8.52685C17.1795 4.25871 13.7119 0.800224 9.43202 0.798828Z" fill="white"/>
<path d="M24.9591 3.73274C24.9591 2.93438 24.5412 2.98677 24.1409 2.97827V2.74751C24.4878 2.76438 24.8437 2.76438 25.1914 2.76438C25.565 2.76438 26.0726 2.74751 26.7317 2.74751C29.0367 2.74751 30.2916 4.28296 30.2916 5.85533C30.2916 6.73439 29.7758 8.94489 26.6244 8.94489C26.1708 8.94489 25.7518 8.92739 25.3337 8.92739C24.9334 8.92739 24.5412 8.93576 24.1409 8.94489V8.714C24.6746 8.66046 24.9334 8.64283 24.9591 8.03907V3.73274ZM25.8315 7.89711C25.8315 8.58066 26.3218 8.66046 26.7576 8.66046C28.6807 8.66046 29.3123 7.2133 29.3123 5.89035C29.3123 4.23057 28.244 3.03207 26.5261 3.03207C26.1605 3.03207 25.9926 3.05807 25.8315 3.06759V7.89711ZM30.6039 8.71413H30.7727C31.0217 8.71413 31.1999 8.71413 31.1999 8.42043V6.01493C31.1999 5.62457 31.0666 5.57027 30.7368 5.3938V5.25145C31.1552 5.12649 31.6542 4.95865 31.6893 4.93213C31.7519 4.89661 31.8051 4.8871 31.8497 4.8871C31.8937 4.8871 31.9121 4.94051 31.9121 5.01206V8.42043C31.9121 8.71413 32.108 8.71413 32.3575 8.71413H32.5085V8.94502C32.2055 8.94502 31.8937 8.92726 31.5742 8.92726C31.2535 8.92726 30.9328 8.93601 30.6039 8.94502V8.71413ZM31.5563 3.52024C31.3243 3.52024 31.1201 3.30711 31.1201 3.07621C31.1201 2.85395 31.3341 2.64918 31.5563 2.64918C31.7871 2.64918 31.9923 2.83644 31.9923 3.07621C31.9923 3.31624 31.7962 3.52024 31.5563 3.52024ZM33.3543 6.06783C33.3543 5.73963 33.2557 5.65108 32.8383 5.48248V5.31374C33.2207 5.18967 33.5853 5.07372 34.0131 4.8871C34.0395 4.8871 34.0657 4.90524 34.0657 4.9759V5.55314C34.5739 5.18967 35.0102 4.8871 35.6074 4.8871C36.3635 4.8871 36.6303 5.43769 36.6303 6.13038V8.42031C36.6303 8.714 36.8258 8.714 37.0754 8.714H37.2357V8.94489C36.9234 8.94489 36.6119 8.92713 36.2923 8.92713C35.9715 8.92713 35.6508 8.93589 35.3305 8.94489V8.714H35.4904C35.7403 8.714 35.9175 8.714 35.9175 8.42031V6.1215C35.9175 5.61492 35.6074 5.3669 35.0992 5.3669C34.8144 5.3669 34.3603 5.59742 34.0657 5.79292V8.42031C34.0657 8.714 34.2627 8.714 34.512 8.714H34.672V8.94489C34.3605 8.94489 34.0484 8.92713 33.728 8.92713C33.408 8.92713 33.0869 8.93589 32.7669 8.94489V8.714H32.9275C33.1767 8.714 33.3543 8.714 33.3543 8.42031V6.06783ZM37.9125 6.49474C37.8942 6.57466 37.8942 6.70749 37.9125 7.00956C37.9649 7.85283 38.5094 8.54501 39.2205 8.54501C39.7109 8.54501 40.0941 8.2786 40.4227 7.95052L40.5471 8.07485C40.1376 8.61657 39.63 9.0781 38.9008 9.0781C37.4848 9.0781 37.2003 7.71049 37.2003 7.14264C37.2003 5.4023 38.3749 4.8871 38.9976 4.8871C39.7194 4.8871 40.4944 5.33975 40.5023 6.28084C40.5023 6.33489 40.5023 6.38741 40.4944 6.44133L40.4135 6.49461H37.9126L37.9125 6.49474ZM39.4885 6.2103C39.7109 6.2103 39.7367 6.09473 39.7367 5.98829C39.7367 5.53563 39.4612 5.17166 38.9623 5.17166C38.4196 5.17166 38.0457 5.57027 37.939 6.2103H39.4885ZM40.7076 8.71413H40.948C41.1963 8.71413 41.3746 8.71413 41.3746 8.42043V5.92625C41.3746 5.65108 41.0456 5.59754 40.9118 5.52663V5.3938C41.5617 5.11824 41.9179 4.8871 41.9992 4.8871C42.0515 4.8871 42.0779 4.91374 42.0779 5.00305V5.80192H42.0969C42.3186 5.45558 42.6932 4.88722 43.2359 4.88722C43.4586 4.88722 43.7431 5.03781 43.7431 5.35764C43.7431 5.59742 43.5743 5.81119 43.3253 5.81119C43.0481 5.81119 43.0481 5.59754 42.737 5.59754C42.5855 5.59754 42.0873 5.8018 42.0873 6.33489V8.42056C42.0873 8.71413 42.2649 8.71413 42.5143 8.71413H43.0126V8.94502C42.5228 8.93601 42.1502 8.92726 41.767 8.92726C41.4021 8.92726 41.0281 8.93601 40.7076 8.94502V8.71413ZM44.1347 7.71062C44.2506 8.29636 44.6064 8.79392 45.2567 8.79392C45.781 8.79392 45.9767 8.47422 45.9767 8.16378C45.9767 7.11587 44.0369 7.45295 44.0369 6.02394C44.0369 5.52637 44.438 4.88722 45.4166 4.88722C45.7011 4.88722 46.0839 4.9674 46.4308 5.14514L46.4937 6.04995H46.2888C46.1999 5.4911 45.8885 5.17153 45.3185 5.17153C44.962 5.17153 44.6242 5.37566 44.6242 5.75727C44.6242 6.7968 46.6894 6.4766 46.6894 7.87034C46.6894 8.45621 46.2176 9.07823 45.158 9.07823C44.8021 9.07823 44.3836 8.95378 44.0724 8.77629L43.9742 7.75527L44.1347 7.71062ZM54.7275 4.35426H54.5055C54.336 3.31624 53.597 2.89848 52.6006 2.89848C51.5764 2.89848 50.0894 3.5819 50.0894 5.71261C50.0894 7.507 51.3722 8.79392 52.7426 8.79392C53.6235 8.79392 54.3541 8.19042 54.5324 7.25758L54.7366 7.31086L54.5324 8.60705C54.1584 8.83871 53.1524 9.0781 52.5644 9.0781C50.4819 9.0781 49.1647 7.73739 49.1647 5.73963C49.1647 3.91936 50.7935 2.61392 52.5381 2.61392C53.2588 2.61392 53.9535 2.84545 54.6386 3.08535L54.7275 4.35426ZM55.0487 8.71413H55.2169C55.467 8.71413 55.6451 8.71413 55.6451 8.42043V3.4761C55.6451 2.89848 55.5115 2.88071 55.1734 2.78316V2.64107C55.5291 2.52587 55.9031 2.36602 56.0899 2.25907C56.1872 2.20617 56.2589 2.16113 56.2852 2.16113C56.3394 2.16113 56.3573 2.21492 56.3573 2.2861V8.42031C56.3573 8.714 56.5529 8.714 56.8025 8.714H56.9528V8.94489C56.6512 8.94489 56.3394 8.92713 56.0188 8.92713C55.6987 8.92713 55.3781 8.93589 55.0487 8.94489V8.71413ZM60.7642 8.45621C60.7642 8.61657 60.8617 8.62494 61.0129 8.62494C61.1199 8.62494 61.2528 8.61657 61.3691 8.61657V8.80344C60.9857 8.83871 60.2562 9.02507 60.0869 9.07823L60.042 9.05159V8.33264C59.5088 8.76754 59.0986 9.07823 58.4659 9.07823C57.9857 9.07823 57.4871 8.76754 57.4871 8.02207V5.74864C57.4871 5.51775 57.4518 5.29573 56.9538 5.25145V5.08272C57.2746 5.07384 57.9857 5.02081 58.1018 5.02081C58.2005 5.02081 58.2005 5.0826 58.2005 5.2781V7.56827C58.2005 7.83507 58.2005 8.59842 58.9743 8.59842C59.277 8.59842 59.6775 8.36766 60.0509 8.0576V5.66821C60.0509 5.4911 59.624 5.3938 59.3042 5.30486V5.14501C60.1045 5.09148 60.6037 5.02069 60.6922 5.02069C60.7642 5.02069 60.7642 5.0826 60.7642 5.18079V8.45621ZM62.5354 5.52663C62.8909 5.22469 63.3719 4.88722 63.8619 4.88722C64.8945 4.88722 65.5168 5.78454 65.5168 6.75189C65.5168 7.91487 64.6628 9.07823 63.389 9.07823C62.7309 9.07823 62.3838 8.86484 62.152 8.76754L61.8854 8.97128L61.6991 8.87398C61.7778 8.35015 61.8234 7.83507 61.8234 7.29361V3.4761C61.8234 2.89848 61.6892 2.88071 61.3511 2.78316V2.64107C61.708 2.52587 62.0809 2.36602 62.2682 2.25907C62.3659 2.20617 62.4368 2.16113 62.4645 2.16113C62.5178 2.16113 62.5354 2.21492 62.5354 2.2861V5.52663ZM62.5354 7.94126C62.5354 8.27872 62.8556 8.84759 63.452 8.84759C64.4048 8.84759 64.805 7.91487 64.805 7.12425C64.805 6.16565 64.0758 5.36703 63.3812 5.36703C63.0511 5.36703 62.7756 5.58016 62.5354 5.78454V7.94126ZM24.1309 14.1071H24.199C24.3731 14.1071 24.557 14.0836 24.557 13.832V11.3012C24.557 11.0492 24.3731 11.0252 24.199 11.0252H24.1309V10.8804C24.3198 10.8804 24.6105 10.8994 24.8484 10.8994C25.0903 10.8994 25.3806 10.8804 25.6082 10.8804V11.0252H25.5403C25.3666 11.0252 25.1821 11.0492 25.1821 11.3012V13.832C25.1821 14.0836 25.3666 14.1071 25.5401 14.1071H25.6082V14.2527C25.3759 14.2527 25.0845 14.2337 24.8433 14.2337C24.6057 14.2337 24.3198 14.2527 24.1309 14.2527V14.1071ZM28.9359 13.3003L28.9457 13.2909V11.4795C28.9457 11.0832 28.6693 11.0254 28.5242 11.0254H28.4176V10.8802C28.6453 10.8802 28.8682 10.8994 29.0956 10.8994C29.2942 10.8994 29.4935 10.8802 29.6915 10.8802V11.0251H29.6193C29.4153 11.0251 29.1876 11.0639 29.1876 11.6386V13.8372C29.1876 14.0061 29.1926 14.1749 29.2163 14.3246H29.0323L26.5382 11.5513V13.5421C26.5382 13.9624 26.6198 14.1069 26.9932 14.1069H27.0753V14.2526C26.8673 14.2526 26.6593 14.2335 26.4507 14.2335C26.2334 14.2335 26.0102 14.2526 25.7923 14.2526V14.1069H25.86C26.1942 14.1069 26.2956 13.8804 26.2956 13.4943V11.4594C26.2956 11.1893 26.0723 11.0251 25.8552 11.0251H25.7923V10.8802C25.9761 10.8802 26.165 10.8994 26.3485 10.8994C26.4942 10.8994 26.6349 10.8802 26.7802 10.8802L28.936 13.3002L28.9359 13.3003ZM30.4169 11.1218C30.0531 11.1218 30.0395 11.2088 29.9666 11.561H29.8215C29.8403 11.426 29.8649 11.2909 29.8796 11.1505C29.8992 11.015 29.9086 10.8802 29.9086 10.7403H30.0248C30.0639 10.8854 30.1847 10.8804 30.3162 10.8804H32.8148C32.9459 10.8804 33.0666 10.8755 33.0767 10.7304L33.1923 10.7498C33.1735 10.8804 33.1539 11.0104 33.1392 11.1412C33.1303 11.2717 33.1303 11.4023 33.1303 11.5323L32.9847 11.586C32.9748 11.4074 32.9504 11.1218 32.6262 11.1218H31.8319V13.6921C31.8319 14.0646 32.0016 14.1071 32.2337 14.1071H32.3256V14.2527C32.1369 14.2527 31.7976 14.2337 31.5365 14.2337C31.2458 14.2337 30.9065 14.2527 30.7174 14.2527V14.1071H30.8093C31.0767 14.1071 31.2115 14.0833 31.2115 13.7021V11.1218H30.4169ZM33.3471 14.1071H33.4152C33.5895 14.1071 33.7737 14.0836 33.7737 13.832V11.3012C33.7737 11.0492 33.5895 11.0252 33.4152 11.0252H33.3471V10.8804C33.6421 10.8804 34.1469 10.8994 34.5529 10.8994C34.9604 10.8994 35.4634 10.8804 35.7926 10.8804C35.785 11.1268 35.7885 11.3735 35.8031 11.6196L35.6571 11.6583C35.6338 11.3446 35.5759 11.0934 35.0668 11.0934H34.3944V12.3586H34.9699C35.2604 12.3586 35.3239 12.1949 35.3526 11.9335H35.4975C35.488 12.1217 35.4832 12.3102 35.4831 12.4987C35.4831 12.6827 35.4882 12.8661 35.4975 13.0496L35.3526 13.0783C35.3239 12.7888 35.3092 12.6003 34.9745 12.6003H34.3944V13.7258C34.3944 14.0398 34.674 14.0398 34.9842 14.0398C35.5659 14.0398 35.822 14.0009 35.9676 13.4509L36.1031 13.4841C36.0399 13.7408 35.982 13.9962 35.939 14.2527C35.6284 14.2527 35.0715 14.2337 34.6361 14.2337C34.1996 14.2337 33.6231 14.2527 33.3471 14.2527V14.1071ZM36.7569 11.3921C36.7569 11.0397 36.5632 11.0252 36.4126 11.0252H36.3254V10.8802C36.4804 10.8802 36.7806 10.8996 37.0763 10.8996C37.3665 10.8996 37.5993 10.8802 37.8559 10.8802C38.4659 10.8802 39.009 11.0444 39.009 11.7311C39.009 12.1651 38.7185 12.4309 38.3358 12.5815L39.1639 13.8172C39.2997 14.0216 39.396 14.0789 39.6337 14.1069V14.2528C39.4737 14.2528 39.3186 14.2338 39.159 14.2338C39.009 14.2338 38.8535 14.2528 38.704 14.2528C38.3311 13.7649 38.0105 13.2432 37.6961 12.6868H37.377V13.7211C37.377 14.0936 37.551 14.1069 37.7734 14.1069H37.861V14.2528C37.5842 14.2528 37.3043 14.2338 37.0279 14.2338C36.7951 14.2338 36.5675 14.2528 36.3254 14.2528V14.1069H36.4126C36.5925 14.1069 36.7569 14.026 36.7569 13.8469V11.3923V11.3921ZM37.377 12.5126H37.6137C38.0985 12.5126 38.3594 12.3295 38.3594 11.7592C38.3594 11.3298 38.0835 11.0544 37.652 11.0544C37.5065 11.0544 37.4445 11.0693 37.377 11.0734V12.5126ZM42.9222 13.3004L42.931 13.2909V11.4795C42.931 11.0832 42.6555 11.0254 42.5103 11.0254H42.404V10.8802C42.6316 10.8802 42.8536 10.8994 43.0819 10.8994C43.2808 10.8994 43.4784 10.8802 43.6786 10.8802V11.0251H43.6053C43.4022 11.0251 43.1743 11.0639 43.1743 11.6386V13.8372C43.1743 14.0061 43.1789 14.1749 43.2029 14.3246H43.0192L40.5249 11.5513V13.5421C40.5249 13.9624 40.6069 14.1069 40.9799 14.1069H41.0621V14.2526C40.8542 14.2526 40.6457 14.2335 40.4378 14.2335C40.2191 14.2335 39.9964 14.2526 39.7787 14.2526V14.1069H39.846C40.1806 14.1069 40.2823 13.8804 40.2823 13.4943V11.4594C40.2823 11.1893 40.0595 11.0251 39.8418 11.0251H39.7787V10.8802C39.9621 10.8802 40.1519 10.8994 40.3359 10.8994C40.4799 10.8994 40.621 10.8802 40.7667 10.8802L42.9223 13.3002L42.9222 13.3004ZM44.4574 13.5618C44.4081 13.7258 44.3499 13.8522 44.3499 13.9383C44.3499 14.0836 44.5535 14.1071 44.713 14.1071H44.767V14.2527C44.5715 14.2412 44.3757 14.2349 44.1799 14.2339C44.0056 14.2349 43.8314 14.2412 43.6575 14.2527V14.1071H43.6868C43.8756 14.1071 44.0359 13.9962 44.1074 13.7928L44.8833 11.5763C44.9455 11.3975 45.0336 11.1558 45.0627 10.9764C45.2169 10.924 45.411 10.8276 45.5032 10.7694C45.5179 10.7643 45.5264 10.7592 45.5418 10.7592C45.5563 10.7592 45.5652 10.7592 45.5761 10.7742C45.5906 10.8127 45.6041 10.8563 45.6199 10.8947L46.5111 13.4216C46.5688 13.5905 46.6266 13.7691 46.6892 13.9147C46.748 14.05 46.8496 14.1071 47.0097 14.1071H47.0387V14.2527C46.8161 14.241 46.5933 14.2347 46.3704 14.2339C46.1333 14.2339 45.8903 14.2422 45.6432 14.2527V14.1071H45.6971C45.8079 14.1071 45.9974 14.0883 45.9974 13.9673C45.9974 13.9048 45.9538 13.7744 45.8997 13.6194L45.7113 13.0591H44.6119L44.4574 13.5618ZM45.1643 11.4214H45.1544L44.7038 12.7888H45.609L45.1643 11.4214ZM47.2518 11.1218C46.8884 11.1218 46.8739 11.2088 46.8011 11.561H46.6555C46.6746 11.426 46.6991 11.2909 46.7142 11.1505C46.7335 11.015 46.7425 10.8802 46.7425 10.7403H46.8593C46.8978 10.8854 47.0194 10.8804 47.1496 10.8804H49.6494C49.7796 10.8804 49.9006 10.8755 49.9105 10.7304L50.0266 10.7498C50.0079 10.8804 49.9885 11.0104 49.974 11.1412C49.9632 11.2717 49.9632 11.4023 49.9632 11.5323L49.8184 11.586C49.8095 11.4074 49.7851 11.1218 49.4604 11.1218H48.6659V13.6921C48.6659 14.0646 48.8359 14.1071 49.0678 14.1071H49.16V14.2527C48.9711 14.2527 48.6323 14.2337 48.3704 14.2337C48.0804 14.2337 47.7406 14.2527 47.5518 14.2527V14.1071H47.6437C47.9107 14.1071 48.0461 14.0833 48.0461 13.7021V11.1218H47.2518ZM50.2052 14.1071H50.273C50.4479 14.1071 50.631 14.0836 50.631 13.832V11.3012C50.631 11.0492 50.4479 11.0252 50.273 11.0252H50.2052V10.8804C50.3946 10.8804 50.6845 10.8994 50.9216 10.8994C51.1644 10.8994 51.455 10.8804 51.683 10.8804V11.0252H51.6152C51.4405 11.0252 51.2559 11.0492 51.2559 11.3012V13.832C51.2559 14.0836 51.4405 14.1071 51.6152 14.1071H51.683V14.2527C51.4502 14.2527 51.1595 14.2337 50.9175 14.2337C50.6798 14.2337 50.3945 14.2527 50.2052 14.2527V14.1071ZM53.6147 10.8082C54.6473 10.8082 55.4702 11.4462 55.4702 12.4752C55.4702 13.5864 54.6709 14.325 53.6395 14.325C52.6119 14.325 51.8277 13.6295 51.8277 12.5908C51.8277 11.5862 52.6073 10.8082 53.6147 10.8082ZM53.6878 14.1124C54.6277 14.1124 54.7912 13.2857 54.7912 12.5815C54.7912 11.8751 54.4097 11.0203 53.6053 11.0203C52.7575 11.0203 52.5059 11.7743 52.5059 12.4209C52.5059 13.2857 52.903 14.1124 53.6878 14.1124ZM58.734 13.3004L58.7441 13.2909V11.4795C58.7441 11.0832 58.4672 11.0254 58.3218 11.0254H58.2168V10.8802C58.4436 10.8802 58.6667 10.8994 58.8935 10.8994C59.093 10.8994 59.2915 10.8802 59.4904 10.8802V11.0251H59.4171C59.2142 11.0251 58.9862 11.0639 58.9862 11.6386V13.8372C58.9862 14.0061 58.9907 14.1749 59.0154 14.3246H58.8315L56.3365 11.5513V13.5421C56.3365 13.9624 56.419 14.1069 56.7915 14.1069H56.8742V14.2526C56.6658 14.2526 56.4581 14.2335 56.2496 14.2335C56.0317 14.2335 55.8082 14.2526 55.5901 14.2526V14.1069H55.6586C55.9932 14.1069 56.094 13.8804 56.094 13.4943V11.4594C56.094 11.1893 55.8723 11.0251 55.6535 11.0251H55.59V10.8802C55.7745 10.8802 55.9635 10.8994 56.1473 10.8994C56.2924 10.8994 56.4326 10.8802 56.5783 10.8802L58.7342 13.3002L58.734 13.3004ZM60.2686 13.5618C60.221 13.7258 60.1623 13.8522 60.1623 13.9383C60.1623 14.0836 60.3664 14.1071 60.5252 14.1071H60.5794V14.2527C60.3841 14.2412 60.1885 14.2349 59.9929 14.2339C59.8186 14.2349 59.6445 14.2412 59.4706 14.2527V14.1071H59.498C59.6877 14.1071 59.848 13.9962 59.9195 13.7928L60.6957 11.5763C60.7584 11.3975 60.846 11.1558 60.8742 10.9764C61.0294 10.924 61.2229 10.8276 61.3158 10.7694C61.3296 10.7643 61.3393 10.7592 61.3539 10.7592C61.3685 10.7592 61.3778 10.7592 61.3875 10.7742C61.4021 10.8127 61.4171 10.8563 61.4317 10.8947L62.3224 13.4216C62.3805 13.5905 62.4384 13.7691 62.502 13.9147C62.5602 14.05 62.6624 14.1071 62.8217 14.1071H62.8513V14.2527C62.6329 14.2422 62.4148 14.2339 62.182 14.2339C61.9454 14.2339 61.7026 14.2422 61.4556 14.2527V14.1071H61.509C61.6197 14.1071 61.8099 14.0883 61.8099 13.9673C61.8099 13.9048 61.7658 13.7744 61.7119 13.6194L61.5238 13.0591H60.4241L60.2686 13.5618ZM60.9765 11.4214H60.9668L60.5156 12.7888H61.4222L60.9766 11.4214H60.9765ZM64.0718 13.779C64.0718 13.9726 64.2063 14.0302 64.3613 14.05C64.56 14.0646 64.778 14.0646 65.0014 14.0401C65.2045 14.0157 65.3787 13.9 65.4658 13.779C65.5432 13.6725 65.5865 13.5376 65.6161 13.4311H65.7565C65.7033 13.7064 65.6353 13.9775 65.5769 14.2527C65.1517 14.2527 64.724 14.2339 64.2989 14.2339C63.8719 14.2339 63.4463 14.2527 63.02 14.2527V14.1071H63.0868C63.2619 14.1071 63.4512 14.0836 63.4512 13.7837V11.3009C63.4512 11.0492 63.2618 11.0252 63.0868 11.0252H63.02V10.8804C63.2762 10.8804 63.5284 10.8995 63.7847 10.8995C64.0327 10.8995 64.2744 10.8804 64.5215 10.8804V11.0252H64.3998C64.2162 11.0252 64.0718 11.0307 64.0718 11.2862V13.779Z" fill="#1A1918"/>
</g>
<defs>
<clipPath id="clip0_365_232">
<rect width="65" height="17" fill="white" transform="translate(0.790039)"/>
</clipPath>
</defs>
</svg>
