<svg width="31" height="30" viewBox="0 0 31 30" fill="none" xmlns="http://www.w3.org/2000/svg">
<g clip-path="url(#clip0_365_228)">
<path d="M30.79 16.2361V0H0.790039V30H30.79V21.2473C30.7232 21.2473 30.79 16.2361 30.79 16.2361Z" fill="#006FCF"/>
<path d="M27.1152 14.5655H29.387V9.28711H26.9146V10.022L26.447 9.28711H24.3089V10.2225L23.908 9.28711H19.9658C19.8322 9.28711 19.6986 9.35391 19.565 9.35391C19.4314 9.35391 19.3646 9.4207 19.2309 9.4875C19.0973 9.5543 19.0305 9.5543 18.8969 9.62109V9.28711H7.60508L7.27109 10.1557L6.93687 9.28711H4.26441V10.2225L3.86363 9.28711H1.72531L0.790039 11.5588V14.5655H2.32684L2.59402 13.8305H3.12852L3.39582 14.5655H15.1554V13.8973L15.6229 14.5655H18.8969V14.1647C18.9637 14.2315 19.0973 14.2315 19.1641 14.2983C19.231 14.3651 19.3646 14.3651 19.4314 14.4319C19.565 14.4987 19.6987 14.4987 19.8323 14.4987H22.2377L22.5049 13.7637H23.0395L23.3067 14.4987H26.5807V13.8305L27.1152 14.5655ZM30.79 21.247V16.3027H12.4159L11.9482 16.9709L11.4805 16.3027H6.1352V21.581H11.4805L11.9482 20.9129L12.4159 21.581H15.7566V20.4452H15.623C16.0906 20.4452 16.4916 20.3784 16.8256 20.2448V21.6479H19.231V20.9797L19.6987 21.6479H29.6541C30.055 21.5143 30.4559 21.4474 30.79 21.247Z" fill="white"/>
<path d="M29.6541 19.9781H27.8502V20.713H29.5873C30.3223 20.713 30.79 20.2454 30.79 19.5772C30.79 18.909 30.3893 18.5749 29.7211 18.5749H28.9193C28.7189 18.5749 28.5852 18.4413 28.5852 18.2409C28.5852 18.0405 28.7188 17.9068 28.9191 17.9068H30.4559L30.79 17.1718H28.9861C28.2511 17.1718 27.7834 17.6395 27.7834 18.2409C27.7834 18.909 28.1841 19.2431 28.8523 19.2431H29.6541C29.8545 19.2431 29.9882 19.3767 29.9882 19.5771C30.055 19.8444 29.9213 19.9781 29.6541 19.9781ZM26.3803 19.9781H24.5763V20.713H26.3135C27.0484 20.713 27.5161 20.2454 27.5161 19.5772C27.5161 18.909 27.1153 18.5749 26.4471 18.5749H25.6453C25.4449 18.5749 25.3113 18.4413 25.3113 18.2409C25.3113 18.0405 25.4449 17.9068 25.6453 17.9068H27.1821L27.5161 17.1718H25.7121C24.9771 17.1718 24.5094 17.6395 24.5094 18.2409C24.5094 18.909 24.9103 19.2431 25.5785 19.2431H26.3803C26.5807 19.2431 26.7143 19.3767 26.7143 19.5771C26.7811 19.8444 26.5807 19.9781 26.3803 19.9781ZM24.0417 17.84V17.105H21.2355V20.6462H24.0417V19.9112H22.0373V19.1763H23.9749V18.4413H22.0373V17.7731H24.0417V17.84ZM19.4983 17.84C19.8323 17.84 19.9659 18.0404 19.9659 18.2408C19.9659 18.4413 19.8323 18.6417 19.4983 18.6417H18.496V17.7731L19.4983 17.84ZM18.496 19.3767H18.8969L19.966 20.6462H20.9682L19.7655 19.3099C20.3669 19.1763 20.7009 18.7754 20.7009 18.2409C20.7009 17.5727 20.2333 17.105 19.4983 17.105H17.6274V20.6462H18.4292L18.496 19.3767ZM16.3579 18.3077C16.3579 18.5749 16.2243 18.7753 15.8904 18.7753H14.8212V17.84H15.8234C16.1574 17.84 16.3579 18.0404 16.3579 18.3076V18.3077ZM14.0195 17.105V20.6462H14.8212V19.4435H15.8902C16.6252 19.4435 17.1597 18.9759 17.1597 18.2409C17.1597 17.5727 16.6921 17.0382 15.957 17.0382L14.0195 17.105ZM12.8168 20.6462H13.8189L12.4159 18.8422L13.8189 17.105H12.8168L11.9482 18.2409L11.0796 17.105H10.0774L11.4805 18.8422L10.0774 20.5794H11.0796L11.9482 19.4435L12.8168 20.6462ZM9.81008 17.84V17.105H7.00379V20.6462H9.81008V19.9112H7.80559V19.1763H9.74328V18.4413H7.80559V17.7731H9.81008V17.84ZM26.0462 11.5593L27.4493 13.6974H28.4516V10.1562H27.6498V12.4947L27.4494 12.1607L26.1798 10.1562H25.1108V13.6974H25.9126V11.292L26.0462 11.5593ZM22.5718 11.4925L22.839 10.7575L23.1063 11.4925L23.4403 12.2943H22.2377L22.5717 11.4925H22.5718ZM23.9749 13.6974H24.8435L23.3068 10.1562H22.2377L20.7009 13.6974H21.5695L21.9036 12.9624H23.6408L23.9749 13.6974ZM20.2332 13.6974L20.5673 12.9624H20.3669C19.7655 12.9624 19.4314 12.5616 19.4314 11.9602V11.8934C19.4314 11.292 19.7655 10.8911 20.3669 10.8911H21.2355V10.1562H20.3001C19.231 10.1562 18.6297 10.8911 18.6297 11.8934V11.9602C18.6297 13.0292 19.231 13.6974 20.2332 13.6974ZM17.2265 13.6974H18.0283V10.223H17.2265V13.6974ZM15.4893 10.8911C15.8234 10.8911 15.957 11.0915 15.957 11.292C15.957 11.4924 15.8234 11.6929 15.4895 11.6929H14.4871V10.8243L15.4893 10.8911ZM14.4871 12.4279H14.8879L15.957 13.6974H16.9593L15.7566 12.3611C16.3579 12.2275 16.692 11.8266 16.692 11.292C16.692 10.6239 16.2243 10.1562 15.4893 10.1562H13.6186V13.6974H14.4204L14.4871 12.4279ZM13.0173 10.8911V10.1562H10.211V13.6974H13.0173V12.9624H11.0128V12.2275H12.9504V11.4925H11.0128V10.8243H13.0173V10.8911ZM6.93699 13.6974H7.67199L8.67418 10.8243V13.6974H9.47598V10.1562H8.13969L7.33789 12.5615L6.53609 10.1562H5.1998V13.6974H6.0016V10.8243L6.93699 13.6974ZM2.59402 11.4925L2.86121 10.7575L3.12852 11.4925L3.46262 12.2943H2.25992L2.59402 11.4925ZM3.99711 13.6974H4.86582L3.32902 10.1562H2.32684L0.790039 13.6974H1.65863L1.99262 12.9624H3.72992L3.99711 13.6974Z" fill="#006FCF"/>
</g>
<defs>
<clipPath id="clip0_365_228">
<rect width="30" height="30" fill="white" transform="translate(0.790039)"/>
</clipPath>
</defs>
</svg>
