<svg width="34" height="26" viewBox="0 0 34 26" fill="none" xmlns="http://www.w3.org/2000/svg">
<g clip-path="url(#clip0_365_214)">
<path d="M6.18275 25.8706V24.1498C6.18275 23.49 5.77456 23.0599 5.0749 23.0599C4.72513 23.0599 4.34615 23.1746 4.08377 23.5475C3.8798 23.232 3.58833 23.0599 3.15106 23.0599C2.85946 23.0599 2.56812 23.1459 2.33481 23.4614V23.1173H1.72266V25.8706H2.33481V24.3505C2.33481 23.863 2.5972 23.6335 3.00539 23.6335C3.41332 23.6335 3.61755 23.8916 3.61755 24.3505V25.8706H4.2297V24.3505C4.2297 23.863 4.52104 23.6335 4.90001 23.6335C5.30821 23.6335 5.51217 23.8916 5.51217 24.3505V25.8706H6.18275ZM15.2483 23.1173H14.2573V22.2855H13.6452V23.1173H13.0913V23.6621H13.6451V24.9242C13.6451 25.5552 13.9074 25.928 14.6071 25.928C14.8695 25.928 15.1608 25.842 15.3651 25.7273L15.19 25.211C15.0152 25.3257 14.8112 25.3544 14.6654 25.3544C14.3739 25.3544 14.2573 25.1824 14.2573 24.8954V23.6621H15.2483V23.1173ZM20.4372 23.0598C20.0874 23.0598 19.8542 23.232 19.7084 23.4614V23.1173H19.0963V25.8706H19.7084V24.3219C19.7084 23.863 19.9124 23.6049 20.2914 23.6049C20.408 23.6049 20.5538 23.6336 20.6704 23.6622L20.8452 23.0886C20.7286 23.0599 20.5538 23.0599 20.4372 23.0599V23.0598ZM12.5958 23.3467C12.3042 23.1459 11.8961 23.0599 11.4588 23.0599C10.7593 23.0599 10.2929 23.404 10.2929 23.949C10.2929 24.408 10.6427 24.666 11.2549 24.7521L11.5463 24.7809C11.867 24.8381 12.0419 24.9242 12.0419 25.0676C12.0419 25.2683 11.8087 25.4118 11.4005 25.4118C10.9925 25.4118 10.6718 25.2683 10.4677 25.125L10.1762 25.5839C10.4969 25.8133 10.9342 25.928 11.3713 25.928C12.1876 25.928 12.6541 25.5552 12.6541 25.0389C12.6541 24.5513 12.2751 24.2931 11.692 24.2072L11.4005 24.1784C11.1381 24.1497 10.9342 24.0924 10.9342 23.9204C10.9342 23.7196 11.1381 23.6049 11.4588 23.6049C11.8087 23.6049 12.1585 23.7482 12.3334 23.8343L12.5958 23.3467ZM28.8617 23.0599C28.5118 23.0599 28.2786 23.232 28.1328 23.4614V23.1173H27.5206V25.8706H28.1328V24.3219C28.1328 23.863 28.3369 23.6049 28.7157 23.6049C28.8325 23.6049 28.9783 23.6336 29.0948 23.6622L29.2697 23.0886C29.1531 23.0599 28.9783 23.0599 28.8617 23.0599ZM21.0493 24.4939C21.0493 25.3257 21.6323 25.928 22.536 25.928C22.9441 25.928 23.2356 25.842 23.527 25.6126L23.2356 25.125C23.0024 25.2971 22.7692 25.383 22.5068 25.383C22.0112 25.383 21.6615 25.0389 21.6615 24.4939C21.6615 23.9777 22.0112 23.6335 22.5068 23.6049C22.7692 23.6049 23.0024 23.6908 23.2356 23.863L23.527 23.3754C23.2356 23.1459 22.9441 23.0599 22.536 23.0599C21.6323 23.0599 21.0493 23.6622 21.0493 24.4939ZM26.7045 24.4939V23.1173H26.0924V23.4614C25.8883 23.2034 25.5968 23.0599 25.2178 23.0599C24.4308 23.0599 23.8186 23.6622 23.8186 24.4939C23.8186 25.3257 24.4308 25.928 25.2178 25.928C25.6259 25.928 25.9175 25.7847 26.0924 25.5265V25.8706H26.7045V24.4939ZM24.4599 24.4939C24.4599 24.0063 24.7805 23.6049 25.3052 23.6049C25.8008 23.6049 26.1507 23.9777 26.1507 24.4939C26.1507 24.9815 25.8008 25.383 25.3052 25.383C24.7805 25.3543 24.4599 24.9815 24.4599 24.4939ZM17.1432 23.0599C16.327 23.0599 15.7439 23.6335 15.7439 24.4939C15.7439 25.3544 16.3268 25.928 17.1723 25.928C17.5804 25.928 17.9886 25.8133 18.3092 25.5552L18.0176 25.125C17.7845 25.2971 17.493 25.4118 17.2015 25.4118C16.8225 25.4118 16.4436 25.2397 16.3561 24.752H18.4258V24.5227C18.455 23.6335 17.9304 23.0599 17.1432 23.0599ZM17.1432 23.5761C17.5221 23.5761 17.7846 23.8057 17.8428 24.2359H16.3853C16.4436 23.863 16.706 23.5761 17.1432 23.5761ZM32.3305 24.4939V22.0273H31.7183V23.4614C31.5142 23.2034 31.2228 23.0599 30.8438 23.0599C30.0568 23.0599 29.4446 23.6622 29.4446 24.4939C29.4446 25.3257 30.0568 25.928 30.8438 25.928C31.252 25.928 31.5435 25.7847 31.7183 25.5265V25.8706H32.3305V24.4939ZM30.086 24.4939C30.086 24.0063 30.4065 23.6049 30.9313 23.6049C31.4269 23.6049 31.7766 23.9777 31.7766 24.4939C31.7766 24.9815 31.4269 25.383 30.9313 25.383C30.4065 25.3543 30.086 24.9815 30.086 24.4939ZM9.62236 24.4939V23.1173H9.01021V23.4614C8.80612 23.2034 8.51465 23.0599 8.13567 23.0599C7.34863 23.0599 6.73648 23.6622 6.73648 24.4939C6.73648 25.3257 7.34863 25.928 8.13567 25.928C8.54386 25.928 8.83533 25.7847 9.01021 25.5265V25.8706H9.62236V24.4939ZM7.34863 24.4939C7.34863 24.0063 7.66931 23.6049 8.19396 23.6049C8.68953 23.6049 9.03942 23.9777 9.03942 24.4939C9.03942 24.9815 8.68953 25.383 8.19396 25.383C7.66931 25.3543 7.34863 24.9815 7.34863 24.4939Z" fill="black"/>
<path d="M12.3916 2.20801H21.5739V18.4418H12.3916V2.20801Z" fill="#FF5F00"/>
<path d="M12.9749 10.3254C12.9749 7.02705 14.549 4.10147 16.9684 2.20843C15.1903 0.831739 12.9458 0 10.4972 0C4.69607 0 0.00292969 4.61768 0.00292969 10.3254C0.00292969 16.033 4.69607 20.6508 10.4971 20.6508C12.9457 20.6508 15.1902 19.8191 16.9684 18.4422C14.549 16.5779 12.9749 13.6237 12.9749 10.3254Z" fill="#EB001B"/>
<path d="M33.9635 10.3254C33.9635 16.033 29.2703 20.6508 23.4694 20.6508C21.0207 20.6508 18.7762 19.8191 16.998 18.4422C19.4467 16.5493 20.9917 13.6237 20.9917 10.3254C20.9917 7.02705 19.4174 4.10147 16.998 2.20843C18.7761 0.831739 21.0207 0 23.4694 0C29.2703 0 33.9635 4.64642 33.9635 10.3254Z" fill="#F79E1B"/>
</g>
<defs>
<clipPath id="clip0_365_214">
<rect width="34" height="26" fill="white"/>
</clipPath>
</defs>
</svg>
