<svg width="39" height="30" viewBox="0 0 39 30" fill="none" xmlns="http://www.w3.org/2000/svg">
<g clip-path="url(#clip0_365_221)">
<path d="M38.7889 23.8512C38.7889 27.1705 36.086 29.8733 32.7667 29.8733H0.000976562V6.02212C0.000976562 2.70288 2.70386 0 6.0231 0H38.7889V23.8512Z" fill="white"/>
<path d="M28.1201 17.7341H30.6095C30.6807 17.7341 30.8466 17.7104 30.9178 17.7104C31.3921 17.6156 31.7951 17.1888 31.7951 16.596C31.7951 16.0271 31.3921 15.6003 30.9178 15.4818C30.8466 15.458 30.7045 15.458 30.6097 15.458H28.1203V17.7341H28.1201Z" fill="url(#paint0_linear_365_221)"/>
<path d="M30.3251 2.01562C27.9542 2.01562 26.01 3.93623 26.01 6.33078V10.8118H32.1033C32.2456 10.8118 32.4115 10.8118 32.53 10.8355C33.9051 10.9067 34.9247 11.6179 34.9247 12.8506C34.9247 13.8227 34.2371 14.6526 32.9568 14.8187V14.8659C34.3556 14.9608 35.4225 15.7432 35.4225 16.9523C35.4225 18.2564 34.2371 19.1099 32.6722 19.1099H25.9863V27.8823H32.3166C34.6875 27.8823 36.6318 25.9618 36.6318 23.5671V2.01562H30.3251Z" fill="url(#paint1_linear_365_221)"/>
<path d="M31.4868 13.1351C31.4868 12.566 31.0838 12.1866 30.6095 12.1154C30.5622 12.1154 30.4436 12.0918 30.3725 12.0918H28.1201V14.1782H30.3725C30.4438 14.1782 30.5859 14.1782 30.6097 14.1545C31.0839 14.0833 31.4869 13.7041 31.4869 13.135L31.4868 13.1351Z" fill="url(#paint2_linear_365_221)"/>
<path d="M6.47355 2.01562C4.10264 2.01562 2.1584 3.93623 2.1584 6.33078V16.9762C3.36764 17.5688 4.62416 17.9482 5.88083 17.9482C7.37446 17.9482 8.18052 17.0473 8.18052 15.8144V10.788H11.8792V15.7906C11.8792 17.7347 10.6701 19.3234 6.5684 19.3234C4.07901 19.3234 2.13477 18.7779 2.13477 18.7779V27.8585H8.46507C10.836 27.8585 12.7802 25.938 12.7802 23.5434V2.01593H6.4734L6.47355 2.01562Z" fill="url(#paint3_linear_365_221)"/>
<path d="M18.3991 2.01562C16.0282 2.01562 14.084 3.93623 14.084 6.33078V11.9735C15.1747 11.0488 17.0714 10.4561 20.1299 10.5984C21.7658 10.6696 23.5202 11.12 23.5202 11.12V12.9456C22.6429 12.4952 21.5999 12.092 20.2484 11.9971C17.9249 11.8312 16.5261 12.9693 16.5261 14.9608C16.5261 16.9761 17.9249 18.1141 20.2484 17.9244C21.5999 17.8296 22.6431 17.4029 23.5202 16.9761V18.8017C23.5202 18.8017 21.7894 19.2521 20.1299 19.3234C17.0714 19.4655 15.1747 18.8727 14.0841 17.9482V27.9059H20.4144C22.7853 27.9059 24.7294 25.9855 24.7294 23.5908V2.01593H18.3991V2.01562Z" fill="url(#paint4_linear_365_221)"/>
</g>
<defs>
<linearGradient id="paint0_linear_365_221" x1="-183.292" y1="129.543" x2="882.157" y2="129.543" gradientUnits="userSpaceOnUse">
<stop stop-color="#007940"/>
<stop offset="0.2285" stop-color="#00873F"/>
<stop offset="0.7433" stop-color="#40A737"/>
<stop offset="1" stop-color="#5CB531"/>
</linearGradient>
<linearGradient id="paint1_linear_365_221" x1="27.9344" y1="1294.31" x2="1093.44" y2="1294.31" gradientUnits="userSpaceOnUse">
<stop stop-color="#007940"/>
<stop offset="0.2285" stop-color="#00873F"/>
<stop offset="0.7433" stop-color="#40A737"/>
<stop offset="1" stop-color="#5CB531"/>
</linearGradient>
<linearGradient id="paint2_linear_365_221" x1="-183.323" y1="116.114" x2="882.184" y2="116.114" gradientUnits="userSpaceOnUse">
<stop stop-color="#007940"/>
<stop offset="0.2285" stop-color="#00873F"/>
<stop offset="0.7433" stop-color="#40A737"/>
<stop offset="1" stop-color="#5CB531"/>
</linearGradient>
<linearGradient id="paint3_linear_365_221" x1="4.00837" y1="1294.31" x2="1085.93" y2="1294.31" gradientUnits="userSpaceOnUse">
<stop stop-color="#1F286F"/>
<stop offset="0.4751" stop-color="#004E94"/>
<stop offset="0.8261" stop-color="#0066B1"/>
<stop offset="1" stop-color="#006FBC"/>
</linearGradient>
<linearGradient id="paint4_linear_365_221" x1="7.9522" y1="1294.3" x2="1058.75" y2="1294.3" gradientUnits="userSpaceOnUse">
<stop stop-color="#6C2C2F"/>
<stop offset="0.1735" stop-color="#882730"/>
<stop offset="0.5731" stop-color="#BE1833"/>
<stop offset="0.8585" stop-color="#DC0436"/>
<stop offset="1" stop-color="#E60039"/>
</linearGradient>
<clipPath id="clip0_365_221">
<rect width="38.79" height="30" fill="white"/>
</clipPath>
</defs>
</svg>
